<?xml version="1.0" standalone="no"?>
<!DOCTYPE svg PUBLIC "-//W3C//DTD SVG 20010904//EN"
 "http://www.w3.org/TR/2001/REC-SVG-20010904/DTD/svg10.dtd">
<svg version="1.0" xmlns="http://www.w3.org/2000/svg"
 width="512.000000pt" height="512.000000pt" viewBox="0 0 512.000000 512.000000"
 preserveAspectRatio="xMidYMid meet">

<g transform="translate(0.000000,512.000000) scale(0.100000,-0.100000)"
fill="#000000" stroke="none">
<path d="M2321 5107 c-13 -6 -32 -23 -42 -37 -27 -36 -833 -1933 -857 -2015
-98 -335 -67 -725 92 -1170 20 -54 32 -102 28 -106 -4 -3 -216 -180 -472 -391
-256 -212 -474 -395 -484 -407 -29 -32 -26 -101 6 -143 61 -80 704 -805 727
-820 36 -24 82 -22 120 5 18 12 246 324 535 729 l503 707 6 1163 c10 1708 8
2376 -6 2418 -22 63 -99 97 -156 67z"/>
<path d="M2690 5098 c-20 -14 -40 -38 -47 -58 -14 -42 -16 -710 -6 -2418 l6
-1163 503 -707 c289 -405 517 -717 535 -729 38 -27 84 -29 120 -5 23 15 666
740 727 820 32 42 35 111 6 143 -10 12 -228 195 -484 407 -256 211 -468 388
-472 391 -4 4 8 52 28 106 165 461 192 877 80 1208 -51 149 -835 1971 -859
1995 -36 35 -93 40 -137 10z"/>
</g>
</svg>
